<?xml version="1.0" encoding="utf-8"?>
<!-- Generator: Adobe Illustrator 22.0.1, SVG Export Plug-In . SVG Version: 6.00 Build 0)  -->
<svg version="1.1" xmlns="http://www.w3.org/2000/svg" xmlns:xlink="http://www.w3.org/1999/xlink" x="0px" y="0px"
	 viewBox="0 0 411 70.9" enable-background="new 0 0 411 70.9" xml:space="preserve">
<g id="Ebene_1">
	<g>
		<path fill="#FFF" d="M16.1,23.3h15.7L30.4,31h0.2c1.5-3,3.4-5.2,5.8-6.7c2.4-1.5,5.7-2.3,9.7-2.3l-2.7,13.3h-2.8
			c-3.7,0-6.6,0.9-8.9,2.6c-2.3,1.8-3.8,4.7-4.6,8.7l-3.7,17.5H7.9l6.7-31.5C15.1,30.5,15.6,27.4,16.1,23.3z"/>
		<path fill="#FFF" d="M46.6,43.4c1-4.2,2.7-7.9,5.3-11.2c2.6-3.2,5.9-5.7,9.8-7.5c3.9-1.8,8.3-2.7,13.1-2.7
			c4,0,7.5,0.6,10.5,1.9c3,1.2,5.3,3.1,6.9,5.5c1.6,2.4,2.4,5.4,2.4,8.9c0,1.6-0.2,3.4-0.5,5.2c-0.8,4.1-2.3,7.5-4.3,10.4
			c-2,2.9-4.4,5.1-7.1,6.8c-2.7,1.7-5.5,2.9-8.5,3.6c-3,0.7-6,1.1-8.9,1.1c-4.1-0.1-7.7-0.7-10.6-2.1c-2.9-1.3-5.1-3.2-6.6-5.6
			c-1.5-2.4-2.3-5.3-2.3-8.6C45.8,48.2,46.1,46.2,46.6,43.4z M78.4,43.6c0.3-1.7,0.5-3.4,0.5-5.1c0-5-2-7.5-5.9-7.5
			c-6.4,0.2-10.2,6.4-11.4,18.5c0.2,4.7,2.1,7,6,7C73,56.5,76.6,52.2,78.4,43.6z"/>
		<path fill="#FFF" d="M125.7,5.3l-4.6,22.5c4-3.8,8.9-5.8,14.6-5.8c2.5,0,4.7,0.5,6.8,1.5c2,1,3.7,2.6,4.9,4.8
			c1.2,2.2,1.9,5,1.9,8.4c0,4.7-0.9,9.3-2.8,13.7c-1.9,4.4-4.7,8-8.3,10.7c-3.6,2.8-7.8,4.2-12.7,4.4c-2.8,0-5.2-0.7-7.3-2.2
			c-2-1.5-3.1-3.2-3.2-5.1h-0.3c0.1,0-0.5,2-1.8,6H97.8l12.5-58.9H125.7z M117.9,43.1c-0.5,2.2-0.8,4.4-1,6.5
			c0.2,4.6,1.9,6.9,5.2,6.9c2.6-0.1,4.7-1.1,6.4-3.1c1.7-2,2.9-4.4,3.6-7.3c0.7-2.9,1.1-5.6,1.1-8.2c0-4.6-1.8-6.9-5.5-6.9
			C122.9,31.1,119.6,35.1,117.9,43.1z"/>
		<path fill="#FFF" d="M155.5,43.4c1-4.2,2.7-7.9,5.3-11.2c2.6-3.2,5.9-5.7,9.8-7.5c3.9-1.8,8.3-2.7,13.1-2.7
			c4,0,7.5,0.6,10.5,1.9c3,1.2,5.3,3.1,6.9,5.5c1.6,2.4,2.4,5.4,2.4,8.9c0,1.6-0.2,3.4-0.5,5.2c-0.8,4.1-2.3,7.5-4.3,10.4
			c-2,2.9-4.4,5.1-7.1,6.8c-2.7,1.7-5.5,2.9-8.5,3.6c-3,0.7-6,1.1-8.9,1.1c-4.1-0.1-7.7-0.7-10.6-2.1c-2.9-1.3-5.1-3.2-6.6-5.6
			c-1.5-2.4-2.3-5.3-2.3-8.6C154.8,48.2,155,46.2,155.5,43.4z M187.3,43.6c0.3-1.7,0.5-3.4,0.5-5.1c0-5-2-7.5-5.9-7.5
			c-6.4,0.2-10.2,6.4-11.4,18.5c0.2,4.7,2.2,7,6,7C181.9,56.5,185.5,52.2,187.3,43.6z"/>
		<path fill="#FFF" d="M221,17.2l16.9-5.9l-2.5,12.1h9l-2.1,9.6h-9l-3.3,16.4c-0.1,0.6-0.4,2-0.7,4c0,0.9,0.3,1.5,0.8,1.8
			c0.5,0.3,1.4,0.5,2.7,0.6c0.2,0,0.8-0.1,2-0.1c1.2-0.1,2.1-0.1,2.8-0.1l-2.1,9.2c-3.2,0.4-6.2,0.6-8.7,0.6c-4,0-7.3-0.5-9.8-1.4
			c-2.5-0.9-3.9-3-4-6.3c0.1-1.5,0.5-3.6,1.1-6.2l3.7-18.5h-7.9l2-9.6h8L221,17.2z"/>
		<path fill="#FFF" d="M255.8,23.3h15.7l-1.4,7.7h0.2c1.5-3,3.4-5.2,5.8-6.7c2.4-1.5,5.7-2.3,9.7-2.3l-2.7,13.3h-2.8
			c-3.7,0-6.6,0.9-8.9,2.6c-2.3,1.8-3.8,4.7-4.6,8.7l-3.7,17.5h-15.5l6.7-31.5C254.8,30.5,255.3,27.4,255.8,23.3z"/>
		<path fill="#FFF" d="M286.3,43.4c1-4.2,2.7-7.9,5.3-11.2c2.6-3.2,5.9-5.7,9.8-7.5c3.9-1.8,8.3-2.7,13.1-2.7
			c4,0,7.5,0.6,10.5,1.9c3,1.2,5.3,3.1,6.9,5.5c1.6,2.4,2.4,5.4,2.4,8.9c0,1.6-0.2,3.4-0.5,5.2c-0.8,4.1-2.3,7.5-4.3,10.4
			c-2,2.9-4.4,5.1-7.1,6.8c-2.7,1.7-5.5,2.9-8.5,3.6c-3,0.7-6,1.1-8.9,1.1c-4.1-0.1-7.7-0.7-10.6-2.1c-2.9-1.3-5.1-3.2-6.6-5.6
			c-1.5-2.4-2.3-5.3-2.3-8.6C285.6,48.2,285.8,46.2,286.3,43.4z M318.1,43.6c0.3-1.7,0.5-3.4,0.5-5.1c0-5-2-7.5-5.9-7.5
			c-6.4,0.2-10.2,6.4-11.4,18.5c0.2,4.7,2.1,7,6,7C312.7,56.5,316.3,52.2,318.1,43.6z"/>
		<path fill="#FFF" d="M346.4,23.3h15.7c-0.1,0.6-0.2,1.4-0.3,2.4c-0.1,1-0.2,1.7-0.3,2c2.1-1.9,4.2-3.4,6.4-4.3
			c2.2-0.9,4.7-1.4,7.5-1.4c3.4,0,6.3,0.9,8.7,2.8s3.7,4.6,3.7,8.4c0,0.7-0.1,1.9-0.3,3.7l-5.7,27.4h-15.4l5-23.6
			c0.3-1.4,0.5-2.6,0.5-3.7c0-3.5-1.7-5.2-5-5.2c-1.8,0.1-3.4,0.7-4.8,2c-1.4,1.2-2.4,3-3,5.5l-5.4,25h-15.5l6.5-30.7
			c0.6-2.8,1-5,1.2-6.7C346.2,25.1,346.4,24,346.4,23.3z"/>
		<path fill="#FFF" d="M401,8.8c1.4,1.4,2.1,3.2,2.1,5.2c0,2.1-0.7,3.8-2.1,5.2c-1.4,1.4-3.2,2.1-5.2,2.1c-2.1,0-3.8-0.7-5.2-2.1
			c-1.4-1.4-2.1-3.2-2.1-5.2c0-2.1,0.7-3.8,2.1-5.2c1.4-1.4,3.2-2.1,5.2-2.1C397.8,6.7,399.5,7.4,401,8.8z M400.3,9.5
			c-1.2-1.2-2.8-1.9-4.5-1.9c-1.8,0-3.3,0.6-4.5,1.9c-1.2,1.2-1.9,2.8-1.9,4.5s0.6,3.3,1.9,4.5c1.2,1.2,2.7,1.9,4.5,1.9
			c1.8,0,3.3-0.6,4.5-1.9c1.2-1.2,1.9-2.7,1.9-4.5S401.5,10.8,400.3,9.5z M393.1,18v-7.8h2.9c0.6,0,1.2,0.2,1.6,0.7
			c0.4,0.4,0.7,1,0.7,1.6c0,0.6-0.2,1.2-0.7,1.6c-0.2,0.2-0.4,0.4-0.7,0.5l1.4,3.4h-1.4l-1.3-3.3h-1.3V18H393.1z M397.2,12.4
			c0-0.3-0.1-0.6-0.3-0.8c-0.2-0.2-0.5-0.3-0.8-0.3h-1.7v1.1v1.1h1.7c0.3,0,0.6-0.1,0.8-0.3C397.1,13,397.2,12.8,397.2,12.4z"/>
	</g>
</g>
</svg>
